<svg width="56.000000" height="56.000000" viewBox="0 0 56 56" fill="none" xmlns="http://www.w3.org/2000/svg" xmlns:xlink="http://www.w3.org/1999/xlink">
	<desc>
			Created with Pixso.
	</desc>
	<defs>
		<filter id="filter_0_118_dd" x="0.000000" y="0.000000" width="56.000000" height="56.000000" filterUnits="userSpaceOnUse" color-interpolation-filters="sRGB">
			<feFlood flood-opacity="0" result="BackgroundImageFix"/>
			<feColorMatrix in="SourceAlpha" type="matrix" values="0 0 0 0 0 0 0 0 0 0 0 0 0 0 0 0 0 0 127 0" result="hardAlpha"/>
			<feOffset dx="0" dy="4"/>
			<feGaussianBlur stdDeviation="2.66667"/>
			<feComposite in2="hardAlpha" operator="out" k2="-1" k3="1"/>
			<feColorMatrix type="matrix" values="0 0 0 0 0 0 0 0 0 0 0 0 0 0 0 0 0 0 0.078 0"/>
			<feBlend mode="normal" in2="BackgroundImageFix" result="effect_dropShadow_1"/>
			<feBlend mode="normal" in="SourceGraphic" in2="effect_dropShadow_1" result="shape"/>
		</filter>
	</defs>
	<g filter="url(#filter_0_118_dd)">
		<path id="bg" d="M28 44C39.04 44 48 35.04 48 24C48 12.95 39.04 4 28 4C16.95 4 8 12.95 8 24C8 35.04 16.95 44 28 44Z" fill="#FF3A62" fill-opacity="1.000000" fill-rule="nonzero"/>
		<path id="bg" d="M48 24C48 12.95 39.04 4 28 4C16.95 4 8 12.95 8 24C8 35.04 16.95 44 28 44C39.04 44 48 35.04 48 24Z" stroke="#979797" stroke-opacity="0" stroke-width="0.000000"/>
	</g>
	<path id="make_bird" d="M28.9211 26.8962L30.5187 26.8962L32.7115 29.328L37.8085 29.328L37.8085 31.8378L19.1454 31.8378L19.1454 29.328L28.077 29.328L25.2097 25.9313L15.9133 25.9313C15.0932 25.9313 14.4286 25.2679 14.4286 24.4236L25.4935 24.4236C28.1994 24.4236 30.3915 22.1418 30.3915 19.5439C30.3915 18.0067 29.3044 16.5118 29.3043 16.5115C28.5439 15.383 29.3049 14.8101 30.0898 14.7262C30.126 14.7249 30.163 14.7143 30.2018 14.7143L31.7979 14.7143C32.4081 14.7143 32.7226 15.2431 32.8464 15.601C32.8464 15.601 33.9575 15.6691 34.1608 16.5779C33.3587 16.5779 32.4551 17.4312 33.2376 18.5951C33.8868 19.366 34.2762 20.3573 34.2762 21.4258C34.2762 23.9072 32.1823 25.9313 29.5978 25.9313L26.7521 25.9313L29.8093 29.328L30.9781 29.328L28.9211 26.8962ZM31.0937 16.3816C31.3271 16.3816 31.5162 16.2001 31.5162 15.9761C31.5162 15.752 31.3271 15.5705 31.0937 15.5705C30.8603 15.5705 30.6711 15.752 30.6711 15.9761C30.6711 16.2001 30.8603 16.3816 31.0937 16.3816ZM28.2966 22.4761C29.0808 21.6869 29.5306 20.6207 29.5306 19.5545C29.5306 18.2689 28.5826 16.9372 28.5729 16.924L28.5671 16.9142L28.5606 16.9036C28.3496 16.5923 28.2302 16.3177 28.1733 16.0662L21.0357 23.7267L25.3616 23.7267C26.4572 23.7267 27.4996 23.2781 28.2966 22.4761ZM18.2041 31.8378L15.8444 31.8378L15.8444 29.3032L18.2041 29.3032L18.2041 31.8378ZM38.8235 29.3232L38.8235 31.8571L40.8572 30.5354L38.8235 29.3232Z" clip-rule="evenodd" fill="#FFFFFF" fill-opacity="1.000000" fill-rule="evenodd"/>
</svg>
